<?xml version="1.0" standalone="no"?>
<!DOCTYPE svg PUBLIC "-//W3C//DTD SVG 20010904//EN"
 "http://www.w3.org/TR/2001/REC-SVG-20010904/DTD/svg10.dtd">
<svg version="1.0" xmlns="http://www.w3.org/2000/svg"
 width="666.000000pt" height="666.000000pt" viewBox="0 0 666.000000 666.000000"
 preserveAspectRatio="xMidYMid meet">
<metadata>
Created by potrace 1.14, written by Peter Selinger 2001-2017
</metadata>
<g transform="translate(0.000000,666.000000) scale(0.100000,-0.100000)"
fill="#000000" stroke="none">
<path d="M2037 5434 c-1 -1 -49 -4 -107 -8 -129 -8 -160 -12 -278 -36 -253
-53 -516 -173 -741 -338 -95 -70 -125 -97 -236 -208 -353 -354 -567 -802 -621
-1304 -14 -126 -8 -464 9 -575 17 -103 18 -109 36 -185 186 -792 880 -1441
1631 -1525 30 -3 73 -8 95 -11 89 -12 369 -5 480 12 29 4 165 29 212 38 122
25 335 101 473 170 235 117 388 248 573 488 194 251 357 552 627 1153 52 117
72 155 80 155 5 0 21 -10 37 -23 39 -32 202 -135 298 -189 237 -133 477 -215
690 -235 315 -30 567 25 791 173 86 58 189 158 245 239 111 161 204 402 226
590 13 109 4 389 -13 416 -2 4 -6 24 -10 45 -10 62 -60 207 -100 286 -63 126
-140 234 -236 332 -190 191 -393 295 -652 333 -167 24 -424 -10 -581 -76 -11
-5 -36 -15 -55 -22 -39 -14 -224 -104 -284 -138 -180 -103 -377 -279 -530
-474 l-30 -37 -31 32 c-17 18 -50 50 -73 71 -23 20 -39 37 -35 37 5 0 -4 8
-18 18 -15 9 -69 52 -120 95 -116 97 -108 91 -199 158 -75 55 -208 144 -245
165 -11 6 -63 35 -115 64 -255 142 -599 261 -830 286 -25 3 -51 7 -59 10 -7 2
-61 7 -120 10 -58 3 -123 7 -144 8 -20 1 -38 2 -40 0z m298 -899 c164 -29 394
-119 559 -219 32 -20 62 -36 67 -36 5 0 9 -4 9 -10 0 -5 4 -10 10 -10 14 0
306 -203 330 -229 3 -4 34 -28 70 -56 36 -27 70 -54 76 -60 7 -5 20 -17 31
-25 119 -95 153 -125 153 -133 0 -13 -199 -394 -220 -422 -4 -5 -20 -32 -35
-60 -33 -60 -193 -304 -212 -323 -7 -7 -13 -17 -13 -21 0 -4 -8 -16 -17 -27
-10 -10 -36 -42 -57 -69 -61 -77 -213 -228 -286 -283 -287 -218 -610 -300
-940 -237 -69 13 -196 59 -265 95 -99 52 -111 59 -193 118 -186 134 -333 335
-406 554 -99 295 -70 619 81 898 166 307 457 511 803 563 118 18 332 14 455
-8z m3222 -83 c226 -155 302 -400 196 -628 -67 -145 -202 -223 -397 -228 -83
-2 -118 1 -215 19 -57 10 -152 45 -226 81 -112 57 -305 199 -305 226 0 8 87
138 100 148 3 3 21 25 40 49 119 152 287 281 444 338 63 23 174 40 243 37 53
-2 69 -7 120 -42z"/>
<path d="M1889 4439 c-296 -50 -550 -234 -683 -493 -33 -65 -38 -95 -15 -80 6
3 8 13 5 21 -3 8 -2 12 3 9 5 -3 17 6 26 21 30 45 147 156 205 194 100 66 245
129 329 144 19 3 37 8 41 10 3 2 29 7 56 11 27 3 58 8 69 10 30 7 274 5 320
-1 66 -9 119 -16 135 -17 30 -1 243 -52 350 -82 21 -6 20 -4 -7 14 -40 26 -42
33 -7 20 44 -17 40 -11 -16 26 -257 171 -541 239 -811 193z"/>
<path d="M3352 3647 c-138 -273 -238 -441 -380 -642 -71 -99 -257 -287 -337
-339 -33 -21 -72 -47 -87 -57 -15 -11 -31 -19 -35 -19 -10 -1 -110 -49 -102
-49 3 -1 32 8 65 18 50 17 56 17 35 3 -13 -10 -45 -25 -70 -34 -41 -16 -42
-17 -11 -12 70 12 229 85 330 150 162 106 262 218 455 513 92 141 237 385 288
488 44 86 37 107 -49 156 -6 3 -48 -70 -102 -176z"/>
<path d="M4770 5196 c-186 -65 -298 -116 -445 -204 -109 -66 -167 -106 -235
-162 -168 -139 -172 -147 -103 -199 l42 -33 94 94 c136 136 230 210 394 311
102 62 281 154 356 182 62 23 54 31 -12 11 -29 -8 -49 -11 -46 -6 4 6 12 10
18 11 7 0 30 9 52 19 71 33 14 21 -115 -24z"/>
<path d="M6339 3113 c-80 -119 -235 -240 -389 -305 -149 -62 -246 -80 -455
-83 -165 -3 -208 0 -325 20 -74 14 -144 27 -155 29 -20 5 -126 33 -155 40 -8
2 -24 7 -35 11 -17 6 -16 3 4 -15 l25 -21 -30 5 c-16 4 -22 3 -14 0 8 -4 17
-10 20 -13 11 -14 92 -62 169 -101 407 -204 862 -149 1162 141 97 95 209 255
193 280 -4 7 -3 10 3 6 6 -4 15 5 21 18 21 45 -6 36 -39 -12z m34 22 c-3 -9
-8 -14 -10 -11 -3 3 -2 9 2 15 9 16 15 13 8 -4z"/>
</g>
</svg>
