<svg width="65" height="65" viewBox="0 0 65 65" fill="none" xmlns="http://www.w3.org/2000/svg">
<g clip-path="url(#clip0_1128_11850)">
<path d="M63.9136 29.1357C63.9226 29.1457 63.9283 29.16 63.9307 29.1786C63.9893 29.7129 64.0233 30.2486 64.0329 30.7857C64.0333 30.8014 64.0388 30.8174 64.0493 30.8336C64.0617 30.8526 64.0681 30.8736 64.0686 30.8964C64.0995 31.9317 64.1005 32.9638 64.0714 33.9929C64.0686 34.0764 64.0272 34.1464 64.0272 34.2329C64.0253 34.6438 64.0003 35.0505 63.9522 35.4529C63.9074 35.8252 63.8717 36.1436 63.845 36.4079C63.8069 36.7821 63.7569 37.1248 63.695 37.4357C63.6572 37.625 63.6607 37.8057 63.6129 37.985C63.5733 38.1374 63.5453 38.2907 63.5286 38.445C63.5136 38.5829 63.4486 38.6943 63.4414 38.8386C63.4357 38.9657 63.4091 39.0905 63.3614 39.2129C63.31 39.3457 63.3236 39.4807 63.2807 39.6136C63.2503 39.7093 63.2281 39.805 63.2143 39.9007C63.195 40.0364 63.1343 40.1443 63.1079 40.2764C63.055 40.5421 62.9876 40.795 62.9057 41.035C62.8814 41.1064 62.8829 41.1643 62.8629 41.23C62.7143 41.7081 62.5631 42.1872 62.4093 42.6672C62.3912 42.7238 62.3686 42.7764 62.3414 42.825C62.305 42.8893 62.3107 42.9622 62.2829 43.0329C62.1724 43.3195 62.0617 43.6145 61.9507 43.9179C61.9379 43.9531 61.9217 43.9867 61.9022 44.0186C61.8885 44.0402 61.8797 44.0643 61.8764 44.0893C61.8655 44.1707 61.8353 44.2431 61.7857 44.3064C61.7698 44.3265 61.7597 44.3505 61.7564 44.3757C61.7488 44.4391 61.7264 44.495 61.6893 44.5436C61.675 44.5617 61.6662 44.5824 61.6629 44.6057C61.6491 44.6962 61.6148 44.7767 61.56 44.8471C61.5467 44.8643 61.5369 44.8831 61.5307 44.9036C61.5245 44.9231 61.5176 44.9417 61.51 44.9593C60.2505 47.9355 58.5162 50.6881 56.3072 53.2171C53.2133 56.7595 49.5267 59.4757 45.2472 61.3657C44.3305 61.7705 43.4069 62.1283 42.4764 62.4393C42.2831 62.5036 42.086 62.5633 41.885 62.6186C41.8086 62.6393 41.7572 62.68 41.6793 62.6993C41.4345 62.7579 41.2019 62.8233 40.9814 62.8957C40.9119 62.9186 40.8386 62.9376 40.7614 62.9529C40.701 62.9652 40.625 62.9843 40.5336 63.01C40.3064 63.0743 40.1174 63.1217 39.9664 63.1522C39.8688 63.1717 39.7738 63.1964 39.6814 63.2264C39.49 63.2886 39.2979 63.2993 39.1022 63.3557C38.9729 63.3936 38.8443 63.3793 38.7114 63.4279C38.5729 63.4783 38.4314 63.506 38.2872 63.5107C38.1579 63.5143 38.0593 63.5807 37.9343 63.5893C37.6093 63.6107 37.3 63.715 36.9736 63.725C36.7714 63.7314 36.5943 63.7993 36.3972 63.8136C36.1448 63.8322 35.8886 63.8583 35.6286 63.8921C35.25 63.9407 34.8722 63.9479 34.4936 63.9657C34.4774 63.9662 34.4626 63.9712 34.4493 63.9807C34.4426 63.9855 34.435 63.9883 34.4264 63.9893C33.1736 64.0779 31.8983 64.0786 30.6007 63.9914C30.5864 63.9905 30.5729 63.9871 30.56 63.9814C30.5419 63.9738 30.5229 63.9693 30.5029 63.9679C30.1293 63.9436 29.7622 63.9436 29.3843 63.895C29.1472 63.8641 28.9157 63.8386 28.69 63.8186C28.5605 63.8072 28.4153 63.7852 28.2543 63.7529C28.0657 63.715 27.8707 63.7293 27.6807 63.6857C27.465 63.6357 27.2488 63.6022 27.0322 63.585C26.9386 63.5779 26.8707 63.5193 26.7786 63.5171C26.6138 63.5133 26.4533 63.4845 26.2972 63.4307C26.2286 63.4069 26.1607 63.3924 26.0936 63.3871C26.0169 63.3814 25.9414 63.3688 25.8672 63.3493C25.7676 63.3236 25.6643 63.3026 25.5572 63.2864C25.4776 63.2741 25.4076 63.2571 25.3472 63.2357C25.2548 63.2033 25.186 63.1824 25.1407 63.1729C24.956 63.1352 24.7586 63.0912 24.5486 63.0407C24.4805 63.0241 24.4164 63.0024 24.3564 62.9757C24.2664 62.9357 24.1679 62.9436 24.0743 62.9143C23.8938 62.8586 23.7103 62.8026 23.5236 62.7464C23.4243 62.7164 23.3143 62.7179 23.225 62.6643C23.1893 62.6429 23.1507 62.6269 23.1093 62.6164C22.9045 62.565 22.6969 62.5014 22.4864 62.4257C22.3322 62.3705 22.1774 62.3183 22.0222 62.2693C21.9574 62.2483 21.8931 62.2224 21.8293 62.1914C21.7457 62.15 21.6536 62.1436 21.5614 62.1064C21.181 61.9531 20.8053 61.8064 20.4343 61.6664C20.4314 61.6655 20.4286 61.6643 20.4257 61.6629C20.0095 61.4805 19.5803 61.2905 19.1379 61.0929C19.1285 61.0887 19.1204 61.0817 19.1143 61.0729C19.1072 61.0624 19.0981 61.055 19.0872 61.0507C18.9676 61.005 18.8381 60.9479 18.6986 60.8793C14.7624 58.9445 11.4017 56.3626 8.61644 53.1336C5.57835 49.6107 3.41668 45.6312 2.13144 41.195C2.0643 40.9641 2.00335 40.7455 1.94859 40.5393C1.93002 40.4707 1.91621 40.4036 1.90716 40.3379C1.88359 40.17 1.80716 40.0371 1.78287 39.8643C1.7643 39.725 1.70287 39.6164 1.69216 39.4786C1.68359 39.3705 1.66144 39.2688 1.62573 39.1736C1.55502 38.9829 1.57073 38.7893 1.5093 38.5986C1.47978 38.5071 1.46073 38.4119 1.45216 38.3129C1.44073 38.1836 1.4043 38.0557 1.37216 37.9286C1.33287 37.7729 1.3443 37.6029 1.3093 37.4436C1.28406 37.3288 1.26311 37.2086 1.24644 37.0829C1.22883 36.9548 1.21049 36.8314 1.19144 36.7129C1.15573 36.4914 1.1324 36.2838 1.12144 36.09C1.1043 35.7786 1.02859 35.47 1.01502 35.1607C1.00025 34.836 0.978349 34.4969 0.949302 34.1436C0.946445 34.1064 0.944064 34.07 0.942159 34.0343C0.892159 33.0181 0.891206 31.9719 0.939302 30.8957C0.940254 30.8714 0.945254 30.8462 0.954302 30.82C0.962873 30.7952 0.967397 30.77 0.967873 30.7443C0.978826 30.1105 1.0193 29.5643 1.0893 29.1057C1.1074 28.9871 1.11978 28.8671 1.12644 28.7457C1.14359 28.4164 1.21573 28.095 1.25002 27.7686C1.25716 27.7029 1.27978 27.5848 1.31787 27.4143C1.35216 27.2586 1.34002 27.0964 1.38144 26.9393C1.44502 26.7 1.46502 26.4507 1.53144 26.2079C1.57216 26.0593 1.55787 25.9121 1.61359 25.7643C1.65454 25.6548 1.68121 25.5398 1.69359 25.4193C1.70644 25.2914 1.76573 25.1943 1.77716 25.065C1.78478 24.9779 1.80454 24.8948 1.83644 24.8157C1.86787 24.7386 1.8924 24.6529 1.91002 24.5586C1.93763 24.4114 1.97335 24.2652 2.01716 24.12C2.06002 23.9776 2.10097 23.835 2.14002 23.6921C2.19144 23.5012 2.24716 23.3143 2.30716 23.1314C2.35073 22.9986 2.3643 22.8693 2.43787 22.7479C2.45055 22.7267 2.45791 22.7027 2.4593 22.6779C2.46216 22.6136 2.47811 22.5548 2.50716 22.5014C2.56644 22.3936 2.56144 22.2807 2.61502 22.1686C2.63978 22.1157 2.66168 22.0602 2.68073 22.0021C2.72168 21.8779 2.78097 21.7107 2.85859 21.5007C3.87049 18.756 5.24668 16.195 6.98716 13.8179C9.64763 10.1845 12.9453 7.24096 16.88 4.98715C18.2619 4.19524 19.6664 3.53 21.0936 2.99143C21.1217 2.98048 21.1491 2.96905 21.1757 2.95715C21.3633 2.87334 21.5462 2.80453 21.7243 2.75072C21.7938 2.72976 21.8586 2.70334 21.9186 2.67143C22.0022 2.62715 22.105 2.62643 22.2 2.58572C22.3153 2.53667 22.4322 2.49429 22.5507 2.45857C22.696 2.41476 22.8153 2.37643 22.9086 2.34357C23.0905 2.27976 23.2614 2.22953 23.4214 2.19286C23.491 2.17667 23.5586 2.15334 23.6243 2.12286C23.7514 2.06429 23.885 2.07286 24.0122 2.01429C24.1279 1.96072 24.2493 1.98215 24.3664 1.92429C24.4279 1.89429 24.5072 1.85715 24.5757 1.85572C24.66 1.85381 24.7383 1.83834 24.8107 1.80929C24.9543 1.75072 25.09 1.75215 25.2343 1.70357C25.3343 1.66976 25.4403 1.64453 25.5522 1.62786C25.6545 1.6131 25.7617 1.59048 25.8736 1.56C26.0769 1.50524 26.2841 1.46286 26.495 1.43286C26.6526 1.41048 26.8148 1.37905 26.9814 1.33857C27.1538 1.29667 27.335 1.27167 27.525 1.26357C27.5574 1.26215 27.5872 1.25215 27.6143 1.23357C27.6343 1.21976 27.6567 1.21215 27.6814 1.21072C27.9505 1.19738 28.1957 1.16762 28.4172 1.12143C28.7036 1.06215 28.995 1.08072 29.2814 1.02786C29.39 1.00738 29.5029 0.993574 29.62 0.986431C29.9191 0.967384 30.2183 0.946908 30.5179 0.925003C31.8626 0.826431 33.1783 0.826431 34.465 0.925003C34.7407 0.945955 35.0193 0.964765 35.3007 0.981431C35.4726 0.991908 35.6407 1.01072 35.805 1.03786C36.035 1.07572 36.2572 1.06072 36.49 1.10643C36.7486 1.15786 37.0003 1.19167 37.245 1.20786C37.2945 1.21072 37.3657 1.225 37.4586 1.25072C37.6372 1.29929 37.8236 1.28286 38.0143 1.335C38.15 1.37167 38.2598 1.39596 38.3436 1.40786C38.635 1.44881 38.9388 1.51 39.255 1.59143C39.4207 1.63429 39.5836 1.63357 39.7407 1.69643C39.8793 1.75215 40.0207 1.73929 40.1557 1.79857C40.2893 1.85715 40.4393 1.82929 40.5607 1.89357C40.7164 1.97572 40.8736 1.96643 41.0336 2.02786C41.1522 2.07357 41.2729 2.07429 41.39 2.12929C41.4629 2.1631 41.5393 2.18715 41.6193 2.20143C41.7429 2.22357 41.8564 2.275 41.9793 2.30786C42.0536 2.32786 42.1245 2.3531 42.1922 2.38357C42.285 2.42572 42.3886 2.42572 42.4922 2.46857C42.6622 2.5381 42.8319 2.59667 43.0014 2.64429C43.0629 2.66143 43.1203 2.68548 43.1736 2.71643C43.2479 2.75929 43.3314 2.75572 43.4129 2.78929C43.6881 2.90548 43.9612 3.01048 44.2322 3.10429C44.2693 3.11715 44.3036 3.13619 44.335 3.16143C44.3829 3.19929 44.4379 3.19357 44.4936 3.21715C47.3636 4.4 49.9919 5.96024 52.3786 7.89786C55.6272 10.5355 58.2486 13.6786 60.2429 17.3271C61.0229 18.7543 61.6795 20.2117 62.2129 21.6993C62.2519 21.8093 62.2883 21.9162 62.3222 22.02C62.3369 22.0667 62.356 22.1119 62.3793 22.1557C62.44 22.2693 62.4393 22.3893 62.4972 22.5093C62.52 22.5579 62.5341 22.6086 62.5393 22.6614C62.5514 22.7743 62.6329 22.8579 62.6507 22.9786C62.6598 23.0381 62.6757 23.0986 62.6986 23.16C62.7538 23.3086 62.801 23.461 62.84 23.6171C62.8767 23.7629 62.9167 23.9052 62.96 24.0443C63.0148 24.2195 63.0605 24.4005 63.0972 24.5871C63.1157 24.6843 63.1436 24.7781 63.1807 24.8686C63.2322 24.9943 63.2107 25.1236 63.265 25.25C63.3272 25.3957 63.3093 25.555 63.3686 25.7093C63.4293 25.8679 63.4329 26.0293 63.4672 26.1929C63.5224 26.4548 63.575 26.7171 63.625 26.98C63.6417 27.0667 63.6531 27.151 63.6593 27.2329C63.6664 27.3286 63.6853 27.441 63.7157 27.57C63.7722 27.805 63.7829 28.0686 63.825 28.3157C63.8683 28.5743 63.8912 28.8302 63.8936 29.0836C63.8936 29.1036 63.9003 29.121 63.9136 29.1357Z" fill="url(#paint0_linear_1128_11850)"/>
<path d="M31.2743 33.7479C28.1848 33.7446 25.1924 33.746 22.2971 33.7522C22.2229 33.7526 22.1533 33.7474 22.0886 33.7365C22.0552 33.7312 22.0386 33.7117 22.0386 33.6779V31.3236C22.0386 31.2793 22.0607 31.2572 22.105 31.2572H31.2921C31.3005 31.2572 31.3085 31.2539 31.3144 31.248C31.3203 31.2421 31.3236 31.2341 31.3236 31.2257L31.3243 21.7615C31.3243 21.7081 31.3507 21.6815 31.4036 21.6815H33.9C33.9152 21.6815 33.9297 21.6875 33.9404 21.6982C33.9511 21.7089 33.9571 21.7234 33.9571 21.7386V31.1936C33.9571 31.202 33.9588 31.2104 33.962 31.2182C33.9653 31.226 33.97 31.2331 33.976 31.2391C33.9819 31.245 33.989 31.2498 33.9968 31.253C34.0046 31.2562 34.013 31.2579 34.0214 31.2579C36.8081 31.2565 39.5391 31.2567 42.2143 31.2586C42.6105 31.2591 42.9245 31.2736 43.1564 31.3022C43.1831 31.3055 43.1964 31.3207 43.1964 31.3479C43.1943 31.4643 43.2321 31.5765 43.2343 31.6957C43.2462 32.3524 43.2467 33.0062 43.2357 33.6572C43.2353 33.6812 43.2255 33.7041 43.2084 33.7209C43.1913 33.7377 43.1683 33.7472 43.1443 33.7472H34.0007C33.9953 33.7472 33.9899 33.7483 33.9849 33.7504C33.9798 33.7525 33.9753 33.7556 33.9714 33.7595C33.9676 33.7634 33.9645 33.7681 33.9624 33.7732C33.9604 33.7783 33.9593 33.7838 33.9593 33.7893L33.9557 43.4036C33.9557 43.4307 33.9421 43.4457 33.915 43.4486C33.8312 43.4577 33.7514 43.4622 33.6757 43.4622C32.939 43.4626 32.1793 43.4619 31.3964 43.46C31.3602 43.46 31.3395 43.4422 31.3343 43.4065C31.3238 43.3369 31.3186 43.2646 31.3186 43.1893C31.3252 40.0203 31.3267 36.8893 31.3229 33.7965C31.3229 33.7641 31.3067 33.7479 31.2743 33.7479Z" fill="white"/>
</g>
<defs>
<linearGradient id="paint0_linear_1128_11850" x1="0.903931" y1="0.851074" x2="64.0925" y2="0.851074" gradientUnits="userSpaceOnUse">
<stop offset="0.05" stop-color="#40E0D0"/>
<stop offset="0.95" stop-color="#FF0099"/>
</linearGradient>
<clipPath id="clip0_1128_11850">
<rect width="65" height="64.9286" fill="white"/>
</clipPath>
</defs>
</svg>
