<?xml version="1.0" standalone="no"?>
<!DOCTYPE svg PUBLIC "-//W3C//DTD SVG 20010904//EN"
 "http://www.w3.org/TR/2001/REC-SVG-20010904/DTD/svg10.dtd">
<svg version="1.0" xmlns="http://www.w3.org/2000/svg"
 width="500.000000pt" height="500.000000pt" viewBox="0 0 500.000000 500.000000"
 preserveAspectRatio="xMidYMid meet">

<g transform="translate(0.000000,500.000000) scale(0.100000,-0.100000)"
fill="#000000" stroke="none">
<path d="M2280 4085 c-229 -33 -403 -88 -546 -173 -83 -50 -104 -81 -66 -101
14 -8 41 2 127 45 203 102 399 153 621 161 171 7 297 -7 454 -49 122 -33 312
-105 368 -140 27 -17 38 -19 58 -9 41 18 30 46 -33 84 -249 145 -685 226 -983
182z"/>
<path d="M2370 3905 c-16 -19 -5 -47 17 -43 22 4 29 43 9 51 -8 3 -20 -1 -26
-8z"/>
<path d="M2623 3869 c-43 -16 -26 -69 22 -69 89 0 270 -44 375 -92 31 -14 49
-17 60 -11 22 15 24 42 5 63 -49 54 -395 135 -462 109z"/>
<path d="M3343 3650 c-110 -22 -253 -86 -351 -158 -37 -27 -76 -54 -87 -59
-42 -23 -261 -234 -380 -368 -124 -138 -145 -175 -109 -189 30 -11 50 3 119
85 91 107 284 301 370 370 215 173 381 248 568 257 118 5 190 -8 297 -55 226
-99 438 -351 525 -623 33 -104 55 -218 54 -273 -1 -40 -2 -38 -15 23 -20 93
-73 247 -89 260 -21 17 -50 8 -53 -18 -2 -13 10 -61 27 -106 43 -121 61 -229
61 -375 0 -162 -12 -239 -56 -372 -51 -153 -91 -216 -219 -344 -93 -94 -124
-118 -205 -160 -80 -42 -95 -54 -95 -74 0 -64 55 -49 220 60 76 50 120 89 182
160 99 112 122 145 179 256 156 301 188 656 88 973 -58 186 -161 357 -296 491
-133 133 -262 207 -420 240 -114 23 -195 23 -315 -1z"/>
<path d="M1410 3640 c-117 -19 -266 -94 -415 -207 -53 -41 -180 -183 -223
-248 -81 -126 -166 -342 -193 -495 -19 -105 -16 -353 6 -455 80 -377 288 -660
597 -815 73 -36 83 -39 102 -26 38 25 26 49 -40 82 -85 43 -193 115 -229 154
l-30 33 48 -32 c112 -76 278 -135 411 -147 199 -18 491 81 691 235 22 17 56
42 76 55 20 14 105 92 190 175 154 151 154 151 171 128 37 -48 256 -275 307
-317 156 -128 221 -168 351 -211 183 -60 298 -61 456 -4 109 38 155 69 266
174 126 120 216 288 264 496 27 116 25 330 -4 446 -24 97 -69 217 -114 302
-27 50 -35 58 -57 55 -39 -5 -37 -31 8 -127 44 -95 85 -228 101 -324 37 -231
-36 -528 -175 -706 -174 -225 -411 -321 -642 -263 -120 30 -162 52 -351 180
-50 34 -192 173 -285 277 -43 50 -112 126 -151 170 -40 44 -97 108 -127 142
-30 34 -58 62 -62 62 -4 1 -54 -45 -110 -101 -321 -322 -570 -460 -807 -445
-148 9 -250 64 -337 181 -26 36 -54 67 -61 70 -20 9 -52 -12 -52 -33 0 -30 83
-135 151 -190 93 -75 170 -103 300 -109 95 -4 118 -1 200 22 191 55 364 167
605 391 l111 104 24 -26 24 -25 -95 -90 c-278 -263 -455 -374 -671 -422 -133
-30 -187 -32 -293 -11 -128 24 -185 56 -281 157 -47 49 -94 107 -106 129 -27
54 -59 159 -73 243 -13 75 -32 100 -60 77 -21 -17 -21 -81 0 -174 54 -238 226
-430 449 -500 106 -33 286 -30 410 7 225 67 397 176 658 419 l108 100 21 -21
21 -21 -36 -45 c-35 -42 -235 -234 -302 -288 -102 -85 -352 -214 -467 -242
-259 -64 -500 1 -696 188 -91 86 -168 223 -210 374 -62 224 -18 483 116 680
65 95 112 147 189 207 79 61 131 89 228 122 178 61 347 33 571 -93 89 -51 274
-217 397 -358 l59 -66 -109 -117 c-286 -308 -484 -438 -716 -475 -65 -10 -88
-9 -161 6 -46 10 -89 15 -95 12 -6 -4 -11 -18 -11 -32 0 -45 53 -59 215 -58
127 0 146 3 212 28 179 67 334 179 551 400 l172 174 20 -25 c24 -31 25 -37 5
-53 -8 -7 -15 -16 -15 -21 0 -13 176 -204 325 -355 166 -167 316 -271 462
-318 56 -19 87 -15 97 11 9 23 -8 37 -84 68 -85 35 -182 89 -250 139 -69 50
-224 199 -302 290 l-59 68 20 20 c16 14 19 24 12 36 -9 17 -131 150 -375 410
-269 286 -503 411 -771 412 -85 0 -237 -35 -305 -70 -190 -99 -377 -310 -439
-498 -45 -134 -54 -180 -60 -327 l-6 -150 -15 60 c-18 77 -19 314 -1 415 44
246 153 450 333 626 366 357 777 338 1181 -56 60 -58 132 -133 160 -167 54
-67 90 -82 102 -43 11 33 -43 105 -182 242 -176 174 -330 275 -498 327 -80 25
-255 36 -345 21z"/>
<path d="M1355 3430 c-59 -12 -151 -49 -176 -69 -15 -12 -20 -23 -15 -38 10
-32 31 -34 88 -9 82 36 155 50 253 49 121 -1 199 -23 333 -94 120 -62 212
-132 331 -248 73 -72 88 -80 109 -59 23 23 11 45 -80 135 -148 147 -340 272
-488 318 -63 19 -291 29 -355 15z"/>
<path d="M3360 3409 c-150 -41 -349 -154 -544 -308 -135 -107 -370 -328 -374
-352 -2 -12 6 -23 22 -30 24 -11 32 -6 143 98 303 281 522 429 740 503 154 51
276 39 393 -40 94 -63 111 -77 160 -140 65 -82 78 -90 102 -61 16 21 17 25 1
54 -9 17 -55 70 -103 118 -70 69 -105 95 -175 130 -84 42 -92 44 -189 46 -77
2 -119 -2 -176 -18z"/>
<path d="M3370 3226 c-179 -38 -389 -165 -616 -374 -135 -124 -204 -196 -204
-211 0 -13 29 -41 41 -41 6 0 56 46 112 101 110 110 332 292 400 328 217 118
326 150 445 131 114 -19 267 -124 326 -225 21 -34 33 -45 52 -45 121 0 -95
254 -276 324 -59 23 -198 29 -280 12z"/>
<path d="M1350 3050 c-121 -33 -176 -65 -270 -160 -119 -120 -177 -235 -136
-269 20 -17 42 -4 62 37 70 150 203 269 349 314 221 68 450 -16 720 -266 55
-51 105 -95 112 -99 18 -11 43 3 43 25 0 49 -204 237 -356 329 -158 96 -366
132 -524 89z"/>
<path d="M3440 3059 c-193 -22 -409 -152 -663 -398 -98 -95 -117 -119 -115
-140 2 -18 10 -27 26 -29 18 -3 41 13 95 69 164 165 361 315 489 374 80 36
164 55 249 55 80 0 105 12 93 44 -10 25 -82 35 -174 25z"/>
<path d="M4143 3004 c-3 -8 -1 -20 5 -26 16 -16 42 -2 42 22 0 24 -38 28 -47
4z"/>
<path d="M3572 2928 c-24 -24 -13 -47 38 -73 27 -14 65 -38 83 -55 40 -35 48
-36 70 -12 24 27 3 58 -72 109 -66 44 -98 52 -119 31z"/>
<path d="M1226 2831 c-47 -37 -67 -63 -99 -126 -99 -197 -64 -438 80 -546 82
-62 119 -73 143 -44 19 23 3 51 -41 70 -55 25 -124 104 -146 168 -12 35 -18
79 -17 133 0 72 5 90 36 155 21 45 56 95 87 126 55 56 58 62 39 81 -19 19 -43
14 -82 -17z"/>
<path d="M3209 2827 c-73 -42 -113 -72 -239 -183 -122 -107 -200 -187 -200
-207 0 -24 28 -41 50 -31 10 5 61 50 112 99 106 103 200 180 311 255 77 52 87
66 65 88 -18 18 -38 14 -99 -21z"/>
<path d="M1747 2833 c-19 -19 -1 -45 61 -89 76 -55 201 -161 248 -211 32 -34
49 -39 72 -24 31 19 6 59 -99 157 -137 129 -253 197 -282 167z"/>
<path d="M3969 2824 c-9 -11 -10 -20 -2 -32 14 -22 43 -22 57 1 9 15 7 21 -8
33 -25 18 -31 18 -47 -2z"/>
<path d="M3781 2731 c-12 -8 -11 -22 4 -96 15 -72 17 -97 7 -157 -19 -126 -64
-195 -205 -314 -22 -18 -7 -54 24 -54 25 0 93 46 141 96 92 94 134 253 110
411 -17 105 -41 139 -81 114z"/>
<path d="M4023 2703 c-16 -6 -16 -36 0 -90 15 -51 30 -68 53 -59 14 5 16 15
11 57 -6 49 -29 100 -45 98 -4 0 -13 -3 -19 -6z"/>
<path d="M3906 2653 c-3 -10 0 -47 7 -83 9 -48 17 -66 30 -68 33 -7 50 18 43
63 -12 77 -26 105 -51 105 -14 0 -26 -7 -29 -17z"/>
<path d="M823 2464 c-3 -8 -1 -20 5 -26 16 -16 42 -2 42 22 0 24 -38 28 -47 4z"/>
<path d="M4052 2458 c4 -27 33 -36 42 -13 8 22 -1 35 -25 35 -15 0 -20 -6 -17
-22z"/>
<path d="M934 2457 c-3 -8 -4 -41 -2 -73 3 -52 6 -59 25 -62 27 -4 36 22 31
94 -3 42 -6 49 -26 52 -12 2 -24 -3 -28 -11z"/>
<path d="M3938 2417 c-8 -7 -20 -43 -27 -81 -29 -169 -87 -284 -187 -375 -80
-73 -149 -103 -248 -109 -91 -5 -116 -14 -116 -42 0 -39 65 -50 183 -30 154
25 323 176 391 349 24 62 56 199 56 243 0 43 -26 66 -52 45z"/>
<path d="M2720 2355 c-26 -31 13 -82 44 -56 19 16 21 42 4 59 -16 16 -33 15
-48 -3z"/>
<path d="M4044 2339 c-3 -6 0 -17 7 -25 18 -17 44 -2 36 20 -7 18 -33 21 -43
5z"/>
<path d="M2882 2248 c-23 -23 -12 -47 43 -92 155 -126 342 -196 525 -196 125
0 265 58 265 110 0 34 -32 37 -85 10 -100 -51 -230 -56 -370 -14 -75 22 -238
108 -295 155 -50 42 -64 46 -83 27z"/>
<path d="M944 2235 c-4 -9 -2 -21 4 -27 15 -15 44 -1 40 19 -4 23 -36 29 -44
8z"/>
<path d="M4029 2214 c-11 -14 -10 -18 5 -30 24 -17 36 -10 36 22 0 28 -21 32
-41 8z"/>
<path d="M3987 2104 c-12 -12 -8 -42 6 -47 21 -8 39 8 35 29 -3 19 -29 30 -41
18z"/>
<path d="M3924 1979 c-3 -6 0 -17 7 -25 18 -17 44 -2 36 20 -7 18 -33 21 -43
5z"/>
<path d="M3843 1874 c-3 -8 -1 -20 6 -27 14 -14 47 15 37 32 -10 16 -36 13
-43 -5z"/>
<path d="M3729 1789 c-61 -33 -142 -58 -213 -65 -73 -7 -90 -22 -75 -61 10
-26 29 -28 129 -13 74 12 224 80 240 110 7 14 6 23 -6 34 -20 20 -30 19 -75
-5z"/>
<path d="M3196 1744 c-9 -23 19 -53 35 -37 15 15 7 47 -12 51 -9 2 -19 -5 -23
-14z"/>
<path d="M3314 1705 c-4 -9 -2 -21 4 -27 15 -15 44 -1 40 19 -4 23 -36 29 -44
8z"/>
<path d="M1792 1428 c-17 -17 -15 -46 6 -56 32 -18 231 -35 324 -29 100 6 132
22 112 55 -10 15 -30 17 -150 18 -76 1 -159 6 -184 13 -59 14 -93 14 -108 -1z"/>
<path d="M1462 1298 c-16 -16 -15 -43 1 -57 28 -22 166 -73 277 -101 462 -116
908 -118 1359 -6 78 19 178 50 224 68 77 31 82 35 82 63 0 28 -2 30 -35 29
-19 -1 -87 -20 -150 -42 -299 -106 -727 -145 -1125 -101 -172 19 -416 80 -539
134 -64 28 -77 30 -94 13z"/>
</g>
</svg>
