<svg width="40" height="37" viewBox="0 0 40 37" fill="none" xmlns="http://www.w3.org/2000/svg">
<g clip-path="url(#clip0_486_116)">
<path d="M20 0.822754C19.3937 0.822734 18.7875 1.03857 18.304 1.47049L9.77478 9.08997C9.35533 9.46457 9.31907 10.1084 9.69376 10.5278C10.0684 10.9471 10.712 10.9837 11.1316 10.6088L18.9818 3.59604V23.3311C18.9818 23.8936 19.4379 24.3495 20.0002 24.3495C20.5626 24.3495 21.0184 23.8936 21.0184 23.3311V3.59604L28.8686 10.6088C29.0628 10.7823 29.3051 10.8679 29.5465 10.8679C29.8264 10.8679 30.1051 10.7531 30.3064 10.528C30.6809 10.1085 30.6446 9.46489 30.2252 9.09012L21.6959 1.47049C21.2124 1.03865 20.6063 0.822774 20 0.822754ZM1.01822 24.9586C0.455797 24.9586 0 25.4146 0 25.977V29.8679C0 33.2367 2.74079 35.9775 6.10962 35.9775H33.8904C37.2592 35.9775 40 33.2367 40 29.8679V25.977C40 25.4146 39.5442 24.9586 38.9818 24.9586C38.4195 24.9586 37.9634 25.4146 37.9634 25.977V29.8679C37.9634 32.1137 36.1362 33.941 33.8904 33.941H6.10962C3.86376 33.941 2.03659 32.1137 2.03659 29.8679V25.977C2.03659 25.4146 1.58064 24.9586 1.01822 24.9586ZM7.20062 28.9708C6.63836 28.9708 6.18225 29.4267 6.18225 29.9892C6.18225 30.5516 6.6382 31.0074 7.20062 31.0074H32.7994C33.3618 31.0074 33.8176 30.5516 33.8176 29.9892C33.8176 29.4267 33.3617 28.9708 32.7994 28.9708H7.20062Z" fill="white"/>
</g>
<defs>
<clipPath id="clip0_486_116">
<rect width="40" height="36.8" fill="white"/>
</clipPath>
</defs>
</svg>
